<svg viewBox="0 0 433 72" xmlns="http://www.w3.org/2000/svg">
    <g fill="#e87500">
        <path
            d="m70.49 9-1.49.38c-.75-1.48-1.69-2.29-4.08-2.29h-22.36v60.64c0 2.45 1.08 3.33 2.59 3.33l.3 1.22h-14.51l.29-1.22c1.42 0 2.66-1 2.66-3.33v-60.67h-22.3c-2.3 0-3.61 1-4.15 2.3l-1.44-.36 2.1-9.35a12.26 12.26 0 0 0 3.6.35h53.64a11.44 11.44 0 0 0 3-.34zm-8 54.62c-6.19 0-13.92-.22-15.85-.43v-1.41a2.29 2.29 0 0 0 2.45-2.32v-43.32a2.28 2.28 0 0 0 -2.45-2.39v-1.44c2.38-.22 10.34-.52 15.7-.52 11.47 0 17.66 6.11 17.66 24.49 0 18.81-5.16 27.3-17.53 27.3zm1.58-44.33c-1 0-5.4 0-5.86.07v36.72c.46.07 4.89.07 5.41.07 4.78 0 7-5.59 7-19.91 0-13.43-2.86-17-6.56-17zm-34.24-5.49v-1.44s-5.87 0-10.58 0c0 0-1 1.19-1 4.1v36.2c0 2.91-2.09 4.28-4.55 4.28s-4.48-1.17-4.48-4.28v-36.16c0-1.82 1-2.77 2.45-2.77v-1.37h-10a5.86 5.86 0 0 0 -1.5 4.14v37.06a11.16 11.16 0 0 1 -.52 4.21 17.88 17.88 0 0 0 14 6.62 156.81 156.81 0 0 0 16.17-1.17v-1.37a2.3 2.3 0 0 1 -2.45-2.32v-43.32a2.28 2.28 0 0 1 2.46-2.41z">
        </path>
        <path
            d="m122.87 10.63-.51.16a1.93 1.93 0 0 0 -2.08-1.18h-5.38v17.39c0 1.16.52 1.51 1.22 1.51v.49h-6v-.51c.76 0 1.24-.39 1.24-1.51v-17.37h-5.47a2.08 2.08 0 0 0 -2 1.18l-.52-.16.9-4.12a8.47 8.47 0 0 0 1.44.09h15.1a5.77 5.77 0 0 0 1.19-.13z">
        </path>
        <path
            d="m145.33 29h-6v-.51c.67 0 1.22-.32 1.22-1.47v-8.42h-10.09v8.4c0 1 .51 1.47 1.24 1.47v.53h-6v-.51c.7 0 1.22-.39 1.22-1.47v-18.47c0-1.12-.52-1.44-1.22-1.44v-.51h6v.51c-.64 0-1.24.39-1.24 1.44v7h10.11v-7c0-1.08-.52-1.44-1.22-1.44v-.51h6v.51c-.6 0-1.24.36-1.24 1.44v18.45c0 1.15.57 1.47 1.24 1.47z">
        </path>
        <path
            d="m164.89 24.94-1.09 4.22a10 10 0 0 0 -1.54-.16h-13.26v-.51c.64 0 1.22-.35 1.22-1.51v-18.36c0-1.09-.51-1.51-1.22-1.51v-.51h13.48a8 8 0 0 0 1.31-.16l1 4.13-.51.19c-.51-.86-.77-1.15-2.14-1.15h-8.45v5.47h8c.93 0 1.31-.51 1.31-1.05h.51v5.18h-.51c0-.58-.38-1.12-1.31-1.12h-8v7.91h8.74a1.81 1.81 0 0 0 1.91-1.18z">
        </path>
        <path
            d="m194.55 7.11a1.07 1.07 0 0 0 -1.22 1.16v15.35a6.9 6.9 0 0 0 .32 2.24 12.29 12.29 0 0 1 -8.65 3.68c-3.77 0-6.11-1.21-8.83-3.64a7.33 7.33 0 0 0 .29-2.24v-15.2c0-.93-.48-1.35-1.25-1.35v-.51h6v.51c-.8 0-1.24.36-1.24 1.35v14.24c0 2.4 1.56 3.8 5.15 3.8s4.88-1.63 4.88-3.74v-14.4a1.12 1.12 0 0 0 -1.24-1.25v-.51h5.82z">
        </path>
        <path
            d="m217.59 7.11c-.7 0-1.25.42-1.25 1.51v20.38h-2.56a4.16 4.16 0 0 0 -.64-1.47l-10.62-14.75h-.07v14.11c0 1.28.58 1.6 1.25 1.6v.51h-5.63v-.51c.74 0 1.22-.42 1.22-1.6v-18.34a1.27 1.27 0 0 0 -1.22-1.44v-.51h4.8a4.16 4.16 0 0 0 .74 1.6l9.5 13.06h.1v-12.67a1.32 1.32 0 0 0 -1.21-1.48v-.51h5.63z">
        </path>
        <path
            d="m227.22 29h-6v-.51c.77 0 1.21-.35 1.21-1.51v-18.36c0-1.15-.54-1.51-1.21-1.51v-.51h6v.51c-.64 0-1.25.39-1.25 1.54v18.35c0 1.16.52 1.51 1.25 1.51z">
        </path>
        <path
            d="m250.71 7.11c-.61 0-1.06.42-1.44 1.54l-5.73 17.28a12.85 12.85 0 0 0 -.57 1.95c0 .32.09.61.54.61v.51h-6.34v-.51c.52 0 .64-.29.64-.67a9.42 9.42 0 0 0 -.48-1.76l-5.79-17.12c-.48-1.47-1-1.83-1.5-1.83v-.51h5.96v.51c-.55 0-.77.29-.77.8a3.66 3.66 0 0 0 .19 1l5.15 16.41h.1l5-16a6.59 6.59 0 0 0 .35-1.5.64.64 0 0 0 -.73-.71v-.51h5.5z">
        </path>
        <path
            d="m269.43 24.94-1.09 4.22a9.87 9.87 0 0 0 -1.54-.16h-13.27v-.51c.64 0 1.21-.35 1.21-1.51v-18.36c0-1.09-.51-1.51-1.21-1.51v-.51h13.47a8 8 0 0 0 1.31-.16l1.05 4.13-.51.19c-.51-.86-.77-1.15-2.14-1.15h-8.45v5.47h8c.93 0 1.31-.51 1.31-1.05h.52v5.18h-.52c0-.58-.38-1.12-1.31-1.12h-8v7.91h8.74a1.82 1.82 0 0 0 1.92-1.18z">
        </path>
        <path
            d="m290.39 29h-5.09a47.94 47.94 0 0 1 -3.77-8.8 15 15 0 0 1 -1.61 0h-2.36v6.8c0 1.15.48 1.54 1.24 1.54v.46h-6v-.51c.8 0 1.22-.35 1.22-1.54v-18.36c0-1-.55-1.48-1.22-1.48v-.51c2.08-.09 5.92-.25 7.52-.25 6.11 0 9.47 1.85 9.47 6.59a6.72 6.72 0 0 1 -4.79 6.62 39.25 39.25 0 0 0 4 8.13 1.53 1.53 0 0 0 1.38.8zm-10-19.65c-.83 0-1.66.07-2.81.13v7.9h3.23c3.55 0 5.47-1.57 5.47-4.19-.02-2.78-1.84-3.84-5.91-3.84z">
        </path>
        <path
            d="m300.37 29.51c-3.07 0-3.87-.48-5.18-.48a2.89 2.89 0 0 0 -1.22.23l-.86-5.35.64-.13c1.12 1.6 3 2.72 6.08 2.72 3.77 0 5.25-1.31 5.25-3.36 0-1.66-1.32-2.72-3.08-3.48l-3.74-1.66c-2.59-1.11-4.22-3-4.22-5.82 0-3.93 3.17-6.11 7.32-6.11a40.5 40.5 0 0 1 4.55.48 6.05 6.05 0 0 0 1-.13l.71 4.71-.61.16c-.91-1.17-2.29-2.29-5.33-2.29s-4.19 1.28-4.19 2.85 1 2.24 2.79 3l3.29 1.34c2.59 1.09 5 3 5 6.53.03 4.04-2.82 6.79-8.2 6.79z">
        </path>
        <path
            d="m317.88 29h-6v-.51c.77 0 1.22-.35 1.22-1.51v-18.36c0-1.15-.55-1.51-1.22-1.51v-.51h6v.51c-.64 0-1.25.39-1.25 1.54v18.35c0 1.16.51 1.51 1.25 1.51z">
        </path>
        <path
            d="m340.21 10.63-.51.16a1.93 1.93 0 0 0 -2.08-1.18h-5.38v17.39c0 1.16.52 1.51 1.22 1.51v.49h-6v-.51c.76 0 1.24-.39 1.24-1.51v-17.37h-5.47a2.09 2.09 0 0 0 -2 1.18l-.52-.16.9-4.12a8.47 8.47 0 0 0 1.44.09h15.1a5.88 5.88 0 0 0 1.16-.13z">
        </path>
        <path
            d="m361.24 7.11c-.52 0-1 .32-1.54 1.38l-6.24 11.17v7.34c0 1.16.54 1.51 1.25 1.51v.49h-6v-.51c.74 0 1.25-.35 1.25-1.51v-7.32l-6.23-11.23c-.61-1.09-1-1.32-1.5-1.32v-.51h6v.51a.65.65 0 0 0 -.71.68 2.15 2.15 0 0 0 .32.92l4 7.59h.16l4-7.3a3.39 3.39 0 0 0 .44-1.21c0-.42-.22-.68-.73-.68v-.51h5.57z">
        </path>
        <path
            d="m114.68 67.54c-5.82 0-10.62-4.32-10.62-11.74s4.94-11.71 10.62-11.71c5.89 0 10.69 4.26 10.69 11.71 0 7.14-4.52 11.74-10.69 11.74zm0-20.44c-3.84 0-7 3.17-7 8.7s3.11 8.74 7 8.74 7.07-3.2 7.07-8.71-3.17-8.73-7.07-8.73z">
        </path>
        <path
            d="m144.7 48.54-.52.19a1.78 1.78 0 0 0 -2-1.12h-8.58v5.85h7.84c1 0 1.35-.41 1.35-1.05h.51v5.18h-.51c0-.67-.39-1.12-1.38-1.12h-7.81v8.45c0 1.15.55 1.57 1.28 1.57v.51h-6v-.51c.77 0 1.21-.39 1.21-1.57v-18.59a1.14 1.14 0 0 0 -1.21-1.22v-.51h13.12a10.44 10.44 0 0 0 1.66-.13z">
        </path>
        <path
            d="m173.81 48.63-.51.16a1.93 1.93 0 0 0 -2.08-1.18h-5.37v17.39c0 1.16.51 1.51 1.21 1.51v.49h-6v-.51c.77 0 1.25-.39 1.25-1.51v-17.37h-5.47a2.1 2.1 0 0 0 -2 1.18l-.51-.16.89-4.12a8.47 8.47 0 0 0 1.44.09h15.11a5.86 5.86 0 0 0 1.15-.13z">
        </path>
        <path
            d="m192.57 62.94-1.09 4.22a10 10 0 0 0 -1.54-.16h-13.28v-.51c.64 0 1.22-.35 1.22-1.51v-18.36c0-1.09-.51-1.51-1.22-1.51v-.51h13.47a8.07 8.07 0 0 0 1.32-.16l1.05 4.13-.51.19c-.51-.86-.77-1.15-2.14-1.15h-8.45v5.47h8c.93 0 1.31-.51 1.31-1h.51v5.18h-.51c0-.58-.38-1.12-1.31-1.12h-8v7.86h8.73a1.81 1.81 0 0 0 1.92-1.18z">
        </path>
        <path
            d="m213.59 67h-6.24v-.51c.48 0 .7-.19.7-.55a2.35 2.35 0 0 0 -.38-1.08l-3.58-6.15h-.09l-3.5 6.29a2.4 2.4 0 0 0 -.41 1c0 .36.22.55.67.55v.45h-5.47v-.51c.64 0 1.05-.35 1.69-1.44l5.41-9.28-5.47-9.15c-.67-1.12-1.06-1.51-1.76-1.51v-.51h6.08v.51c-.45 0-.61.26-.61.55a2.37 2.37 0 0 0 .45 1.05l3.68 6.29h.09l3.46-6.15a3.21 3.21 0 0 0 .45-1.18.56.56 0 0 0 -.64-.58v-.49h5.37v.51c-.7 0-1.08.48-1.69 1.54l-5.41 9.35 5.34 9c.77 1.32 1.35 1.51 1.86 1.51z">
        </path>
        <path
            d="m236.79 67h-5.92v-.51c.54-.07.8-.26.8-.77a4.87 4.87 0 0 0 -.26-1.12l-.48-1.6a19.2 19.2 0 0 1 -4.57.57 24.88 24.88 0 0 1 -4.74-.48l-.54 1.73a3.44 3.44 0 0 0 -.16 1c0 .51.16.67.7.74v.44h-5.5v-.51c.48 0 1-.35 1.47-1.67l6-18a5.67 5.67 0 0 0 .25-1.15c0-.45-.16-.51-.54-.58v-.49h6.27v.51c-.38.07-.58.23-.58.61a4 4 0 0 0 .26 1.09l6 17.89c.38 1.15.86 1.79 1.5 1.79zm-10.5-18.72h-.09l-3.65 11.81a18 18 0 0 0 3.78.45 13.92 13.92 0 0 0 3.67-.54z">
        </path>
        <path
            d="m246.52 67.51c-3.07 0-3.87-.48-5.19-.48a2.81 2.81 0 0 0 -1.21.23l-.87-5.35.64-.13c1.12 1.6 3 2.72 6.08 2.72 3.78 0 5.25-1.31 5.25-3.36 0-1.66-1.31-2.72-3.07-3.48l-3.74-1.66c-2.6-1.11-4.23-3-4.23-5.82 0-3.93 3.17-6.11 7.33-6.11a40.23 40.23 0 0 1 4.54.48 6.28 6.28 0 0 0 1-.13l.7 4.71-.61.16c-.92-1.19-2.3-2.28-5.34-2.28s-4.19 1.28-4.19 2.85 1 2.24 2.78 3l3.3 1.34c2.59 1.09 5 3 5 6.53.05 4.03-2.8 6.78-8.17 6.78z">
        </path>
        <path
            d="m284.92 67h-5.92v-.51c.54-.07.8-.26.8-.77a4.87 4.87 0 0 0 -.26-1.12l-.48-1.6a19.2 19.2 0 0 1 -4.57.57 24.8 24.8 0 0 1 -4.74-.48l-.54 1.73a3.44 3.44 0 0 0 -.16 1c0 .51.16.67.7.74v.44h-5.5v-.51c.48 0 1-.35 1.47-1.67l6-18a5.11 5.11 0 0 0 .26-1.15c0-.45-.16-.51-.54-.58v-.49h6.27v.51c-.39.07-.58.23-.58.61a4 4 0 0 0 .26 1.09l6 17.89c.39 1.15.87 1.79 1.51 1.79zm-10.5-18.72h-.09l-3.65 11.81a17.89 17.89 0 0 0 3.77.45 13.93 13.93 0 0 0 3.65-.54z">
        </path>
        <path
            d="m302.9 48.63-.51.16a1.93 1.93 0 0 0 -2.08-1.18h-5.38v17.39c0 1.16.52 1.51 1.22 1.51v.49h-6v-.51c.76 0 1.25-.39 1.25-1.51v-17.37h-5.48a2.09 2.09 0 0 0 -2 1.18l-.51-.16.89-4.12a8.47 8.47 0 0 0 1.44.09h15.1a5.88 5.88 0 0 0 1.16-.13z">
        </path>
        <path
            d="m321 67.16c-3.13 0-6.53-.1-8.19-.16v-.51c.67 0 1.22-.35 1.22-1.35v-18.71c0-.87-.45-1.32-1.22-1.32v-.51c1.79-.06 5.09-.19 8.61-.19 6.78 0 10.91 4 10.91 11.13-.02 6.82-3.25 11.62-11.33 11.62zm-.29-19.74c-1.21 0-2.43 0-3.16.09v16.61c.73 0 2.36.06 3.39.06 4.86 0 7.81-3.45 7.81-8.67s-3.16-8.09-8.06-8.09z">
        </path>
        <path
            d="m354.77 67h-5.92v-.51c.55-.07.8-.26.8-.77a5.41 5.41 0 0 0 -.25-1.12l-.48-1.6a19.22 19.22 0 0 1 -4.58.57 24.78 24.78 0 0 1 -4.73-.48l-.55 1.73a3.85 3.85 0 0 0 -.16 1c0 .51.16.67.71.74v.44h-5.51v-.51c.48 0 1-.35 1.47-1.67l6-18a5.11 5.11 0 0 0 .26-1.15c0-.45-.16-.51-.55-.58v-.49h6.27v.51c-.38.07-.57.23-.57.61a3.91 3.91 0 0 0 .25 1.09l6 17.89c.38 1.15.86 1.79 1.5 1.79zm-10.49-18.72h-.1l-3.65 11.81a18 18 0 0 0 3.78.45 14 14 0 0 0 3.69-.54z">
        </path>
        <path
            d="m373.49 62.9-1.08 4.26a7.21 7.21 0 0 0 -1.7-.16h-13.12v-.51c.67 0 1.22-.51 1.22-1.51v-18.62a1.16 1.16 0 0 0 -1.22-1.25v-.51h6v.51a1.27 1.27 0 0 0 -1.28 1.32v17.57h8.69a1.86 1.86 0 0 0 2-1.18z">
        </path>
        <path
            d="m392.5 62.9-1.09 4.26a7.11 7.11 0 0 0 -1.69-.16h-13.12v-.51c.67 0 1.21-.51 1.21-1.51v-18.62a1.15 1.15 0 0 0 -1.21-1.25v-.51h6v.51a1.28 1.28 0 0 0 -1.28 1.32v17.57h8.68a1.86 1.86 0 0 0 2-1.18z">
        </path>
        <path
            d="m415.12 67h-5.92v-.51c.55-.07.8-.26.8-.77a5.41 5.41 0 0 0 -.25-1.12l-.48-1.6a19.22 19.22 0 0 1 -4.58.57 24.78 24.78 0 0 1 -4.73-.48l-.55 1.73a3.85 3.85 0 0 0 -.16 1c0 .51.16.67.71.74v.44h-5.51v-.51c.48 0 1-.35 1.48-1.67l6-18a5.11 5.11 0 0 0 .26-1.15c0-.45-.16-.51-.55-.58v-.49h6.27v.51c-.38.07-.57.23-.57.61a4.3 4.3 0 0 0 .25 1.09l6 17.89c.38 1.15.86 1.79 1.5 1.79zm-10.49-18.72h-.1l-3.65 11.81a18 18 0 0 0 3.78.45 14 14 0 0 0 3.65-.52z">
        </path>
        <path
            d="m424.85 67.51c-3.07 0-3.87-.48-5.18-.48a2.89 2.89 0 0 0 -1.22.23l-.86-5.35.64-.13c1.12 1.6 3 2.72 6.08 2.72 3.77 0 5.25-1.31 5.25-3.36 0-1.66-1.31-2.72-3.07-3.48l-3.75-1.66c-2.59-1.11-4.22-3-4.22-5.82 0-3.93 3.17-6.11 7.32-6.11a40.5 40.5 0 0 1 4.55.48 6.05 6.05 0 0 0 1-.13l.71 4.71-.61.16c-.93-1.19-2.3-2.28-5.34-2.28s-4.2 1.28-4.2 2.85 1 2.24 2.79 3l3.29 1.34c2.59 1.09 5 3 5 6.53.05 4.03-2.8 6.78-8.18 6.78z">
        </path>
    </g>
</svg>